<svg width="1440" height="421" viewBox="0 0 1440 421" fill="none" xmlns="http://www.w3.org/2000/svg">
<g opacity="0.2">
<path d="M6.262 13.349C5.02096 13.277 3.91122 12.5521 3.34656 11.4447L-47.3701 -88.0255C-47.9348 -89.133 -47.8697 -90.4569 -47.199 -91.5036L12.386 -184.496C13.0685 -185.561 14.2727 -186.175 15.5356 -186.102L125.795 -179.708C127.036 -179.636 128.145 -178.911 128.71 -177.803L179.427 -78.333C179.991 -77.2255 179.926 -75.9016 179.256 -74.855L119.671 18.1372C118.988 19.2024 117.784 19.8164 116.521 19.7431L6.262 13.349Z" stroke="#FD2F70"/>
<path d="M17.6644 7.57993C16.4233 7.50795 15.3136 6.7831 14.7489 5.67563L-35.9678 -93.7946C-36.5325 -94.902 -36.4673 -96.2259 -35.7966 -97.2726L23.7884 -190.265C24.4709 -191.33 25.675 -191.944 26.938 -191.871L137.197 -185.477C138.438 -185.405 139.548 -184.68 140.112 -183.572L190.829 -84.102C191.394 -82.9946 191.329 -81.6707 190.658 -80.624L131.073 12.3682C130.391 13.4334 129.186 14.0473 127.923 13.9741L17.6644 7.57993Z" stroke="#36DBB6"/>
<path d="M825.834 136.954C824.593 136.882 823.483 136.158 822.919 135.05L786.888 64.384C786.324 63.2765 786.389 61.9526 787.059 60.9059L829.376 -5.13573C830.058 -6.20088 831.262 -6.81484 832.525 -6.7416L910.829 -2.20038C912.07 -2.12841 913.18 -1.40355 913.745 -0.296071L949.775 70.3701C950.34 71.4776 950.275 72.8015 949.604 73.8482L907.288 139.89C906.605 140.955 905.401 141.569 904.138 141.495L825.834 136.954Z" stroke="#FD2F70"/>
<path d="M1051.53 383.258C1050.29 383.186 1049.18 382.461 1048.61 381.353L1012.58 310.687C1012.02 309.58 1012.08 308.256 1012.75 307.209L1055.07 241.167C1055.75 240.102 1056.96 239.488 1058.22 239.562L1136.52 244.103C1137.77 244.175 1138.88 244.9 1139.44 246.007L1175.47 316.673C1176.04 317.781 1175.97 319.105 1175.3 320.151L1132.98 386.193C1132.3 387.258 1131.1 387.872 1129.83 387.799L1051.53 383.258Z" stroke="#FD2F70"/>
<path d="M49.4123 311.466C48.1713 311.394 47.0615 310.669 46.4969 309.562L10.4664 238.896C9.90175 237.788 9.96689 236.464 10.6376 235.418L52.9538 169.376C53.6363 168.311 54.8405 167.697 56.1034 167.77L134.407 172.311C135.648 172.383 136.758 173.108 137.323 174.216L173.353 244.882C173.918 245.989 173.853 247.313 173.182 248.36L130.866 314.401C130.184 315.466 128.979 316.08 127.716 316.007L49.4123 311.466Z" stroke="#07BC93"/>
<path d="M1369.37 252.527C1368.13 252.455 1367.02 251.73 1366.45 250.623L1343.1 204.826C1342.54 203.719 1342.6 202.395 1343.27 201.348L1370.68 158.576C1371.36 157.511 1372.57 156.897 1373.83 156.97L1424.54 159.911C1425.79 159.983 1426.89 160.708 1427.46 161.815L1450.81 207.612C1451.37 208.72 1451.31 210.044 1450.64 211.09L1423.23 253.862C1422.55 254.928 1421.35 255.542 1420.08 255.468L1369.37 252.527Z" stroke="#FD2F70"/>
</g>
</svg>
